<svg width="1200" height="360" viewBox="0 0 1200 360" fill="none" xmlns="http://www.w3.org/2000/svg" role="img" aria-labelledby="title desc">
  <title id="title">Piveo Hero Banner</title>
  <desc id="desc">Piveo: Single image in, image set plus first-frame video out.</desc>

  <defs>
    <linearGradient id="accent" x1="278" y1="98" x2="418" y2="238" gradientUnits="userSpaceOnUse">
      <stop stop-color="#FF9500"/>
      <stop offset="1" stop-color="#FF7D00"/>
    </linearGradient>
    <pattern id="grid" width="32" height="32" patternUnits="userSpaceOnUse">
      <path d="M 32 0 L 0 0 0 32" stroke="#EEF1F4" stroke-width="1"/>
    </pattern>
    <filter id="shadow" x="40" y="20" width="1120" height="320" filterUnits="userSpaceOnUse" color-interpolation-filters="sRGB">
      <feDropShadow dx="0" dy="10" stdDeviation="14" flood-color="#101828" flood-opacity="0.08"/>
    </filter>
    <filter id="iconGlow" x="220" y="40" width="260" height="260" filterUnits="userSpaceOnUse" color-interpolation-filters="sRGB">
      <feGaussianBlur stdDeviation="16" result="blur"/>
      <feMerge>
        <feMergeNode in="blur"/>
        <feMergeNode in="SourceGraphic"/>
      </feMerge>
    </filter>
  </defs>

  <g filter="url(#shadow)">
    <rect x="40" y="40" width="1120" height="280" rx="24" fill="#FFFFFF"/>
    <rect x="40.5" y="40.5" width="1119" height="279" rx="23.5" stroke="#EAECEF"/>
  </g>

  <rect x="40" y="40" width="1120" height="280" rx="24" fill="url(#grid)" opacity="0.45"/>

  <g filter="url(#iconGlow)">
    <circle cx="350" cy="180" r="76" fill="url(#accent)"/>
    <circle cx="350" cy="180" r="57" fill="#FFFFFF"/>
    <path d="M350 124 L392 180 L350 236 L308 180 Z" fill="url(#accent)"/>
    <path d="M350 139 L380 180 L350 221 L320 180 Z" fill="#FFFFFF"/>
    <circle cx="350" cy="180" r="12" fill="url(#accent)"/>
  </g>

  <text x="470" y="162" fill="#101828" font-family="Inter, Segoe UI, Arial, sans-serif" font-size="72" font-weight="700" letter-spacing="-1.2">Piveo</text>
  <text x="470" y="208" fill="#475467" font-family="Inter, Segoe UI, Arial, sans-serif" font-size="30" font-weight="500">Single Image to Image Set + First-Frame Video</text>
  <text x="470" y="244" fill="#98A2B3" font-family="Inter, Segoe UI, Arial, sans-serif" font-size="24" font-weight="400">BrandKit-aware generation for e-commerce teams and creators</text>

</svg>
